<?xml version="1.0" encoding="UTF-8"?>
<svg id="Layer_2" data-name="Layer 2" xmlns="http://www.w3.org/2000/svg" viewBox="0 -140 4573.03 1343.57">
  <defs>
    <style>
      .cls-1 {
        fill: #231f20;
      }

      .cls-2 {
        fill: #f36b32;
      }
    </style>
  </defs>
  <g id="Layer_1-2" data-name="Layer 1">
    <g>
      <path class="cls-1" d="M0,1045.7V8.94h180.24v1036.76H0Z"/>
      <path class="cls-1" d="M707.55,1063.57c-73.5,0-134.57-13.17-183.22-39.47-48.67-26.3-84.91-63.54-108.74-111.72-23.83-48.16-35.75-104.02-35.75-167.58v-449.86h180.24v449.86c0,50.65,12.41,91.87,37.24,123.64,24.81,31.79,62.05,47.67,111.72,47.67s89.38-15.64,113.21-46.92c23.83-31.28,35.75-72.73,35.75-124.38v-449.86h180.24v449.86c0,63.56-12.43,119.17-37.24,166.84-24.84,47.67-61.82,84.91-110.98,111.72s-110,40.22-182.48,40.22Z"/>
      <path class="cls-1" d="M1413.61,455.82c14.9-55.61,40.96-98.8,78.2-129.6,37.24-30.77,82.16-46.17,134.81-46.17h17.88c5.96,0,12.89,1,20.86,2.98v165.35c-7.96-1.98-14.9-2.98-20.86-2.98h-16.39c-64.56,0-115.44,20.62-152.68,61.82-37.24,41.22-55.86,101.06-55.86,179.5v358.99h-180.24V294.94h171.3v160.88h2.98Z"/>
      <path class="cls-1" d="M2137.57,1062.08c-87.4,0-162.62-17.13-225.68-51.39-63.07-34.26-111.49-80.67-145.23-139.28-33.77-58.58-50.65-124.12-50.65-196.63s16.39-143,49.16-202.59c32.77-59.58,78.69-107,137.79-142.26,59.07-35.24,127.36-52.88,204.82-52.88,84.4,0,154.66,19.62,210.78,58.84,56.09,39.24,96.57,91.87,121.4,157.89,24.81,66.05,32.26,138.79,22.34,218.23h-639.04v-128.1h487.1l-19.36,10.43c0-51.62-17.39-94.33-52.14-128.1-34.77-33.75-79.95-50.65-135.55-50.65-43.71,0-80.69,9.94-110.98,29.79-30.3,19.88-53.62,45.94-70.01,78.2-16.38,32.28-24.58,67.29-24.58,105.02v61.07c0,42.71,10.17,81.44,30.54,116.19,20.34,34.77,49.9,62.33,88.63,82.67,38.73,20.37,85.88,30.54,141.51,30.54,39.71,0,78.2-5.45,115.44-16.39,37.24-10.92,71.73-26.3,103.53-46.18v148.96c-31.79,17.87-68.29,31.79-109.49,41.71-41.22,9.91-84.67,14.9-130.34,14.9Z"/>
      <path class="cls-2" d="M2924.08,968.24l196.62-673.3h184.71l-239.82,750.76h-290.47l-239.82-750.76h190.67l195.14,673.3h2.98Z"/>
      <path class="cls-2" d="M3427.54,178.75V0h199.61v178.75h-199.61ZM3437.97,294.94h180.24v750.76h-180.24V294.94Z"/>
      <path class="cls-2" d="M4132.12,1063.57c-67.55,0-128.11-16.38-181.73-49.15-53.62-32.77-95.85-78.44-126.61-137.04-30.79-58.58-46.18-127.1-46.18-205.56s15.64-145.72,46.92-204.82c31.28-59.07,73.74-105.51,127.36-139.28,53.62-33.75,114.18-50.64,181.73-50.64,56.61,0,107,11.43,151.19,34.26,44.18,22.86,79.18,57.12,105.02,102.78h2.98V8.94h180.24v1036.76h-172.79v-145.98h-2.98c-22.86,53.62-57.6,94.36-104.27,122.15-46.69,27.79-100.32,41.71-160.87,41.71ZM4176.8,914.61c65.55,0,118.43-22.83,158.64-68.52,40.22-45.67,60.33-104.27,60.33-175.77s-20.11-131.57-60.33-177.26c-40.22-45.67-93.1-68.52-158.64-68.52s-116.7,22.11-156.4,66.29c-39.73,44.2-59.59,104.04-59.59,179.5s19.85,131.34,59.59,176.52c39.71,45.2,91.84,67.78,156.4,67.78Z"/>
    </g>
  </g>
</svg>
